<svg xmlns="http://www.w3.org/2000/svg" xml:space="preserve" width="1000px" height="909px" x="0px"
  y="0px" viewBox="0 45.5 1000 909"><path fill="#07A3D7" d="m827.909 198.379-57.291.002 49.428-50.551c11.233-11.233 16.851-25.463 16.851-42.688 0-17.224-5.617-31.454-16.851-42.687-11.233-11.234-25.464-16.851-42.688-16.851-17.225 0-31.828 5.617-43.811 16.851L589.759 198.381H417.886L272.974 62.456c-11.233-11.234-25.463-16.851-42.688-16.851-17.224 0-31.454 5.617-42.687 16.851-11.234 11.233-16.851 25.463-16.851 42.687 0 17.225 5.617 31.454 16.851 42.688l49.427 50.551h-57.291c-51.674 1.498-94.174 19.097-127.5 52.797C18.909 284.879 1.497 327.192 0 378.118v388.679c1.497 55.418 18.909 100.165 52.236 134.239 33.326 34.075 75.826 51.861 127.5 53.358h640.31c51.675-1.497 94.361-18.909 128.063-52.236 33.7-33.326 50.924-75.826 51.674-127.5V378.115c2.247-50.925-12.918-93.238-45.496-126.938-32.577-33.701-74.703-51.301-126.378-52.798zm50.551 568.418c-.75 17.974-7.306 33.326-19.663 46.058-12.356 12.73-27.521 19.097-45.495 19.097H187.595c-17.974 0-33.326-6.366-46.057-19.097-12.731-12.731-19.097-28.084-19.097-46.058V385.981c.75-18.723 7.115-34.076 19.098-46.059s27.336-18.349 46.059-19.098h625.707c18.722.75 34.076 7.115 46.058 19.098 11.982 11.983 18.349 27.335 19.099 46.059v380.816zM316.781 450.012c-17.974.75-33.144 7.302-45.5 19.659-12.357 12.357-18.91 27.522-19.659 45.496v65.154c.749 17.974 7.115 33.14 19.097 45.496 11.984 12.356 27.336 18.535 46.06 18.535 18.722 0 34.076-6.179 46.057-18.535 11.984-12.356 18.349-27.522 19.099-45.496v-65.154c-.75-17.973-7.302-33.139-19.659-45.496s-27.522-18.91-45.495-19.659zm374.071 0c-17.974.75-33.144 7.302-45.5 19.659s-18.91 27.522-19.659 45.496v65.154c.749 17.974 7.115 33.14 19.098 45.496s27.336 18.535 46.059 18.535 34.075-6.179 46.059-18.535c11.982-12.356 18.349-27.522 19.098-45.496v-65.154c-.749-17.973-7.302-33.139-19.658-45.496-12.359-12.358-27.525-18.91-45.497-19.659z"/></svg>