<svg xmlns="http://www.w3.org/2000/svg" xml:space="preserve" x="0px" y="0px" viewBox="0 0 500 500"><path fill="#17B7FF" d="M0 0h500v500H0z"/><path d="M465.8 500c-2.05-49.993-21.097-95.598-51.506-131.205A170.215 170.215 0 0 0 420 325c0-20.61-3.67-40.364-10.389-58.644 6.705-17.66 21.99-68.691 3.76-130.48-2.835-9.61-12.643-15.363-22.388-13.038-17.214 4.106-44.704 17.724-77.562 44.398C293.823 159.349 272.421 155 250 155c-22.46 0-43.897 4.365-63.524 12.278-32.88-26.702-60.39-40.331-77.613-44.44-9.745-2.325-19.553 3.428-22.388 13.037-18.3 62.028-2.827 113.216 3.837 130.684C83.64 284.782 80 304.466 80 325c0 15.144 1.99 29.821 5.706 43.795C55.297 404.402 36.251 450.007 34.201 500h431.598z"/><path fill="#FFF" d="M403.871 369c3.99-13.98 6.129-28.74 6.129-44 0-88.366-71.634-160-160-160S90 236.634 90 325c0 15.26 2.139 30.02 6.129 44H403.87zM94.573 378C66 411.143 48.061 453.53 46 500h408c-2.06-46.47-20-88.857-48.573-122H94.573z"/><path d="M267 277h-13V161a4 4 0 0 0-8 0v116h-13a4 4 0 0 0 0 8h34a4 4 0 0 0 0-8z"/><circle cx="176" cy="271" r="24"/><path d="M152.003 319.001c-.307 0-.618-.035-.93-.11l-21-5a4 4 0 0 1 1.853-7.783l21 5a4 4 0 0 1-.923 7.893zM133.002 343.001a4.001 4.001 0 0 1-1.627-7.656l18-8a4 4 0 0 1 3.249 7.31l-18 8a3.99 3.99 0 0 1-1.622.346zM307 500v-20.807c0-10.6-8.593-19.193-19.193-19.193h-1.614c-10.6 0-19.193 8.593-19.193 19.193V500h40zM234 500v-20.807c0-10.6-8.593-19.193-19.193-19.193h-1.614c-10.6 0-19.193 8.593-19.193 19.193V500h40z"/><path fill="#FFF" d="M95.152 247.83s16.845-43.165 80.013-77.908c0 0-45.947-28.404-67.89-34.608-4.037-1.141-8.313.913-9.995 4.756-5.42 12.39-14.804 45.169-2.128 107.76z"/><circle cx="323.84543" cy="271" r="24"/><path d="M347.843 319.001a4.001 4.001 0 0 1-.924-7.893l21-5a4 4 0 1 1 1.853 7.784l-21 5c-.311.074-.623.109-.93.109zM366.844 343.001a3.994 3.994 0 0 1-1.623-.346l-18-8a4 4 0 1 1 3.25-7.31l18 8a4 4 0 0 1-1.627 7.656z"/><path fill="#FFF" d="M404.693 247.83s-16.845-43.165-80.013-77.908c0 0 45.948-28.404 67.89-34.608 4.037-1.141 8.314.913 9.995 4.756 5.42 12.39 14.805 45.169 2.128 107.76z"/></svg>