<?xml version="1.0" standalone="no"?>
<!DOCTYPE svg PUBLIC "-//W3C//DTD SVG 20010904//EN"
 "http://www.w3.org/TR/2001/REC-SVG-20010904/DTD/svg10.dtd">
<svg version="1.0" xmlns="http://www.w3.org/2000/svg"
 width="300.000000pt" height="300.000000pt" viewBox="0 0 300.000000 300.000000"
 preserveAspectRatio="xMidYMid meet">

<g transform="translate(0.000000,300.000000) scale(0.100000,-0.100000)"
fill="#000000" stroke="none">
<path d="M2095 2947 c-28 -23 -103 -94 -167 -157 -64 -63 -153 -144 -198 -180
-45 -36 -93 -78 -107 -94 -27 -32 -117 -106 -128 -106 -4 0 -36 25 -71 55 -34
31 -85 72 -112 93 -28 20 -114 100 -193 176 -197 191 -265 246 -304 246 -41 0
-63 -18 -71 -57 -6 -29 1 -38 120 -156 69 -69 145 -139 170 -156 42 -30 186
-177 186 -192 0 -15 -171 -20 -315 -9 -100 7 -247 9 -440 4 -159 -4 -309 -6
-332 -5 -55 2 -101 -22 -117 -62 -9 -24 -11 -135 -9 -437 2 -223 4 -666 6
-985 2 -453 5 -585 16 -603 24 -44 65 -52 258 -50 251 2 283 0 283 -15 0 -7
17 -33 38 -59 22 -26 44 -59 51 -75 7 -15 35 -46 64 -68 47 -37 57 -40 123
-43 l71 -4 56 48 c31 28 70 77 91 114 56 98 56 99 112 100 58 1 288 3 324 2
14 0 107 -1 208 -1 105 -1 182 -5 182 -10 0 -12 55 -81 130 -163 62 -68 99
-88 164 -88 78 0 117 23 164 95 24 35 47 67 52 70 5 3 18 25 28 49 l20 43 233
6 c129 3 241 8 251 12 9 3 28 23 42 44 l26 37 -9 135 c-4 74 -7 215 -5 314 8
356 0 1512 -10 1548 -15 50 -50 59 -183 46 -89 -9 -141 -9 -219 1 -56 6 -126
9 -155 6 -81 -9 -659 -16 -659 -8 1 13 55 69 105 108 63 49 307 293 351 352
40 52 42 65 9 97 -35 36 -71 31 -130 -18z m-170 -652 c33 -3 93 -2 134 3 41 5
121 5 178 0 59 -4 153 -4 216 2 136 11 384 -5 407 -27 13 -12 15 -118 18 -786
5 -948 4 -1045 -9 -1069 -18 -33 -58 -40 -224 -38 -88 2 -540 3 -1005 3 -465
0 -867 0 -895 0 -27 0 -115 -1 -195 -3 -194 -5 -391 6 -407 23 -17 17 -33 119
-28 172 6 65 6 682 0 733 -4 26 -3 99 2 162 5 63 6 174 3 245 -3 72 0 227 5
345 10 214 10 214 35 227 19 9 111 13 364 12 186 0 341 2 343 5 7 7 981 -2
1058 -9z m384 -2024 c23 -6 23 -6 -17 -58 -75 -94 -125 -108 -178 -51 -32 34
-74 92 -74 102 0 3 48 7 108 9 59 1 114 3 122 4 8 0 26 -2 39 -6z m-1329 -13
c-1 -23 -55 -92 -90 -116 -51 -34 -86 -16 -156 81 l-34 47 140 0 c106 0 140
-3 140 -12z"/>
<path d="M491 2160 l-225 -5 -6 -25 c-8 -31 -14 -267 -13 -530 4 -1047 4
-1051 24 -1071 21 -21 86 -25 289 -19 151 4 652 5 880 2 107 -2 373 -1 590 1
217 3 424 1 460 -2 36 -4 108 -5 160 -2 l95 6 8 60 c8 65 8 309 2 1080 -3 460
-5 490 -22 503 -14 10 -41 12 -113 8 -191 -11 -1774 -14 -1875 -4 -16 2 -131
1 -254 -2z m1881 -68 l248 -7 27 -28 28 -28 0 -162 c0 -89 2 -398 3 -687 2
-289 0 -533 -3 -542 -4 -9 -19 -25 -33 -35 -25 -16 -56 -18 -337 -19 -170 -1
-490 -2 -710 -3 -220 -1 -578 -1 -795 0 -423 1 -445 4 -473 53 -8 16 -11 194
-11 691 0 643 1 672 20 710 13 28 28 43 51 51 38 12 1590 17 1985 6z"/>
<path d="M2149 1751 c-34 -34 -39 -44 -39 -85 0 -94 53 -156 133 -156 87 0
138 44 144 123 7 97 -50 157 -151 157 -43 0 -53 -4 -87 -39z"/>
<path d="M669 1477 c-65 -43 -86 -124 -49 -185 28 -46 76 -72 134 -72 43 0 53
4 87 39 36 35 39 43 39 92 0 66 -24 109 -73 132 -48 23 -98 21 -138 -6z"/>
<path d="M1373 944 c-155 -161 -152 -165 133 -162 l209 3 3 29 c3 25 -10 43
-100 133 -62 62 -111 103 -123 103 -12 0 -58 -39 -122 -106z"/>
</g>
</svg>
