<svg xmlns="http://www.w3.org/2000/svg" viewBox="0 0 200 200"><rect width="200" height="200" rx="44" style="fill:#0280fc"/><path d="M69.87 119.16a4.83 4.83 0 1 1-4.82 4.84 4.82 4.82 0 0 1 4.82-4.84Zm0 14.2a9.37 9.37 0 1 0-9.36-9.36 9.38 9.38 0 0 0 9.36 9.36Z" style="fill:#fff"/><path d="M133.31 172a68.37 68.37 0 0 0-5.71-122s-12.6-5.55-6.71-12.4c.45-.53 1-2.83-2.8-2.26-4.17.62-11.08 2.3-16.23 8.76 0 0-.74-8.44 1.31-13.86.19-.5 1.37-2.86-.8-4s-5.1 1.53-6.37 2.66-24 21.17-24.06 21.18A68.38 68.38 0 0 0 39 143.61v-21a11.32 11.32 0 0 1 11.32-11.32h20.75a11.32 11.32 0 0 1 11.32 11.31v18l15.12-9.43a4.79 4.79 0 0 1 4.59 0l17.23 10.74a2.31 2.31 0 0 1 .59.51l-20.17 6-17.36-5.16v2.82l17 5a1.32 1.32 0 0 0 .39.06 1.26 1.26 0 0 0 .38-.06l17.75-5.27-15.83 10.59a4.41 4.41 0 0 1-4.49 0l-15.2-10.13v11.88a11.32 11.32 0 0 1-11.32 11.33h-.88a10.43 10.43 0 0 0-.44-1.38s4.83-9.1-2.84-12.1c0 0 2.59-7-6-9-5.83-1.37-13.9-.72-21.95 5.33a43.27 43.27 0 0 0-8.68 8.92C22.5 171.8 17.48 181 14.46 188.61A43.83 43.83 0 0 0 44 200h110.06a57.45 57.45 0 0 0-20.75-28Zm-9-40.33a7.15 7.15 0 1 1 7.14-7.15 7.15 7.15 0 0 1-7.17 7.19Z" style="fill:#fff"/></svg>