<?xml version="1.0" standalone="no"?>
<!DOCTYPE svg PUBLIC "-//W3C//DTD SVG 20010904//EN"
 "http://www.w3.org/TR/2001/REC-SVG-20010904/DTD/svg10.dtd">
<svg version="1.0" xmlns="http://www.w3.org/2000/svg"
 width="48.000000pt" height="48.000000pt" viewBox="0 0 48.000000 48.000000"
 preserveAspectRatio="xMidYMid meet">

<g transform="translate(0.000000,48.000000) scale(0.100000,-0.100000)"
fill="#000000" stroke="none">
<path d="M0 240 l0 -240 178 0 178 0 62 63 62 63 0 177 0 177 -240 0 -240 0 0
-240z m350 135 l0 -35 -110 0 -110 0 0 35 0 35 110 0 110 0 0 -35z m-10 -135
l0 -30 -95 0 -95 0 0 30 0 30 95 0 95 0 0 -30z m10 -108 c0 -5 -13 -20 -28
-35 -26 -25 -35 -27 -110 -27 l-82 0 0 35 0 35 110 0 c61 0 110 -4 110 -8z"/>
</g>
</svg>
